<svg viewBox="0 0 24 24">
    <path d="M18.6841 3.27554C16.5629 1.65273 13.9234 0.857675 11.2587 1.03891C8.59404 1.22015 6.08649 2.36527 4.20451 4.26037C2.32252 6.15546 1.19482 8.67089 1.03208 11.3367C0.869343 14.0026 1.68269 16.6365 3.32019 18.7465C4.95769 20.8564 7.30732 22.298 9.93015 22.8021C12.411 23.2788 14.9757 22.8858 17.1949 21.6972L21.7312 22.9632C22.0773 23.0598 22.4486 22.9633 22.7039 22.7103C22.9591 22.4574 23.059 22.087 22.9656 21.74L21.7266 17.1379C22.9033 14.9085 23.28 12.3378 22.7855 9.8572C22.2633 7.23793 20.8054 4.89836 18.6841 3.27554Z" />
</svg>
    